# xmcd
#
# Track frame offsets: 
#        150
#        12785
#        25646
#        37275
#        49300
#        62861
#        76487
#        88294
#        99958
#        115815
#        130743
#        145401
#        154739
#        169051
#        182681
#        194392
#        227497
#        240812
#
# Disc length: 3402 seconds
#
# Revision: 1
# Processed by: cddbd v1.5.2PL0 Copyright (c) Steve Scherf et al.
# Submitted via: ExactAudioCopyFreeDBPlugin 1.0
#
DISCID=e70d4812
DTITLE=Various Artist - Jazz - CD1
DYEAR=2005
DGENRE=Jazz
TTITLE0=Dinah Washington - Mad About The Boy
TTITLE1=Billy Holiday - A Fine Romance
TTITLE2=Benny Goodman - Bugle Call Rag
TTITLE3=Charly Parker - Bugle Call Rag
TTITLE4=Coleman Hawkins - Sweet Geogia Brown
TTITLE5=Buddy Johnson - Let's Beat Out Some Love
TTITLE6=Ella Fitzgerald - A-tisket, A-tasket
TTITLE7=Lena Horne - Night And Day
TTITLE8=Tommy Dorsey - Yes Indeed
TTITLE9=Stan Kenton - Artistry In Rhythm
TTITLE10=Woody Herman - Blue Prelude
TTITLE11=Art Tatum - Tea For Two
TTITLE12=Bessie Smith - St Louis Blues
TTITLE13=Charlie Barnet - Skyliner
TTITLE14=Miles Davis - Milestones
TTITLE15=Errol Garner - Autumn Mood
TTITLE16=Fletcher Henderson - Down South Camp Meerin'
TTITLE17=Jimmy Dorsey - Tangerine
EXTD=YEAR: 2005
EXTT0=
EXTT1=
EXTT2=
EXTT3=
EXTT4=
EXTT5=
EXTT6=
EXTT7=
EXTT8=
EXTT9=
EXTT10=
EXTT11=
EXTT12=
EXTT13=
EXTT14=
EXTT15=
EXTT16=
EXTT17=
PLAYORDER=
